<svg xmlns="http://www.w3.org/2000/svg" viewBox="0 0 80 80" fill="none">
  <!-- Sovereign Forge — Monolith-to-Microservices Icon -->
  <!-- Lower-left: solid hex mass. Upper-right: pixelating into smaller hexagons -->
  
  <!-- Solid base (lower-left portion of main hex) -->
  <path d="M9.2,57.2 L9.2,28 L28,16 L40,22 L40,52 L22,62 Z" fill="#0078D4"/>
  <path d="M9.2,57.2 L22,62 L40,52 L40,38 L28,32 L9.2,42 Z" fill="#005A9E"/>
  
  <!-- Transitional mid-section blocks -->
  <path d="M28,16 L40,10 L48,14 L40,22 Z" fill="#0078D4" opacity="0.85"/>
  <path d="M40,22 L48,14 L56,20 L48,28 Z" fill="#0078D4" opacity="0.7"/>
  <path d="M40,38 L48,28 L56,34 L48,42 Z" fill="#0078D4" opacity="0.65"/>
  <path d="M40,52 L48,42 L56,48 L48,56 Z" fill="#0078D4" opacity="0.5"/>
  
  <!-- Dispersing small hexagons (upper-right — breaking apart) -->
  <!-- Row 1 - most dispersed -->
  <polygon points="62,10 65,8.3 68,10 68,13.4 65,15.1 62,13.4" fill="#0078D4" opacity="0.3"/>
  <polygon points="70,6 73,4.3 76,6 76,9.4 73,11.1 70,9.4" fill="#0078D4" opacity="0.15"/>
  <polygon points="72,16 75,14.3 78,16 78,19.4 75,21.1 72,19.4" fill="#0078D4" opacity="0.2"/>
  
  <!-- Row 2 -->
  <polygon points="58,20 61.5,18 65,20 65,24 61.5,26 58,24" fill="#0078D4" opacity="0.45"/>
  <polygon points="66,22 69,20.3 72,22 72,25.4 69,27.1 66,25.4" fill="#0078D4" opacity="0.25"/>
  <polygon points="74,26 76.5,24.5 79,26 79,28.8 76.5,30.3 74,28.8" fill="#0078D4" opacity="0.12"/>
  
  <!-- Row 3 -->
  <polygon points="56,34 59.5,32 63,34 63,38 59.5,40 56,38" fill="#0078D4" opacity="0.55"/>
  <polygon points="64,32 67,30.3 70,32 70,35.4 67,37.1 64,35.4" fill="#0078D4" opacity="0.35"/>
  <polygon points="71,36 73.5,34.5 76,36 76,38.8 73.5,40.3 71,38.8" fill="#0078D4" opacity="0.18"/>
  
  <!-- Row 4 - closer to base -->
  <polygon points="56,48 59.5,46 63,48 63,52 59.5,54 56,52" fill="#0078D4" opacity="0.4"/>
  <polygon points="64,46 67,44.3 70,46 70,49.4 67,51.1 64,49.4" fill="#0078D4" opacity="0.25"/>
  
  <!-- Tiny scattered fragments (furthest dispersion) -->
  <polygon points="68,14 69.5,13.1 71,14 71,15.8 69.5,16.7 68,15.8" fill="#0078D4" opacity="0.2"/>
  <polygon points="76,20 77.2,19.3 78.4,20 78.4,21.4 77.2,22.1 76,21.4" fill="#0078D4" opacity="0.1"/>
  <polygon points="73,42 74.5,41.1 76,42 76,43.8 74.5,44.7 73,43.8" fill="#0078D4" opacity="0.12"/>
  <polygon points="66,54 67.5,53.1 69,54 69,55.8 67.5,56.7 66,55.8" fill="#0078D4" opacity="0.18"/>
</svg>
